# xmcd CD database file
#
# Track frame offsets:
#	150
#	20766
#	64905
#	105216
#	139275
#	173020
#	210430
#
# Disc length: 3187 seconds
#
# Revision: 0
# Processed by: cddbd v1.5.2PL0 Copyright (c) Steve Scherf et al.
# Submitted via: CDex 1.70beta2
#
DISCID=5a0c7107
DTITLE=David Occhipinti - Forty Revolutions
DYEAR=2007
DGENRE=Jazz
TTITLE0=Sofia's Song
TTITLE1=Mars
TTITLE2=Within the Widening Gyre
TTITLE3=Feel X
TTITLE4=Femme Fatale
TTITLE5=Reds
TTITLE6=Peace March
EXTD=YEAR: 2007
EXTT0=
EXTT1=
EXTT2=
EXTT3=
EXTT4=
EXTT5=
EXTT6=
PLAYORDER=
